<?xml version="1.0" encoding="UTF-8"?>
<!DOCTYPE svg PUBLIC "-//W3C//DTD SVG 1.1//EN" "http://www.w3.org/Graphics/SVG/1.1/DTD/svg11.dtd">
<!-- Creator: CorelDRAW -->
<svg xmlns="http://www.w3.org/2000/svg" xml:space="preserve" width="34.029mm" height="10.1646mm" version="1.1" style="shape-rendering:geometricPrecision; text-rendering:geometricPrecision; image-rendering:optimizeQuality; fill-rule:evenodd; clip-rule:evenodd"
viewBox="0 0 3413.51 1019.63"
 xmlns:xlink="http://www.w3.org/1999/xlink"
 xmlns:xodm="http://www.corel.com/coreldraw/odm/2003">
 <defs>
  <style type="text/css">
   <![CDATA[
    .fil0 {fill:black;fill-rule:nonzero}
    .fil1 {fill:#009FE3;fill-rule:nonzero}
   ]]>
  </style>
 </defs>
 <g id="Ebene_x0020_1">
  <metadata id="CorelCorpID_0Corel-Layer"/>
  <g id="_2937450091360">
   <path class="fil0" d="M1269.01 930.28l-165.32 0 0 -364.89 -100.56 0 0 446.47 265.89 0 0 -81.57zm229.3 89.35l1.91 0c124.31,-0.35 186.46,-67.39 186.46,-201.13l0 -253.12 -100.56 0 0 262.77c0,69.75 -27.71,104.62 -83.13,104.62 -56.47,0 -84.68,-36.11 -84.68,-108.35l0 -259.04 -100.87 0 0 257.79c0,130.63 60.3,196.11 180.88,196.45zm1915.2 -7.77l0 -446.47 -94.64 0 0 246.9c0,30.5 0.83,50.95 2.49,61.33l-1.24 0c-6.85,-12.04 -14.31,-24.19 -22.41,-36.42l-177.15 -271.81 -108.36 0 0 446.47 94.97 0 0 -245.34c0,-32.38 -0.83,-56.46 -2.5,-72.22l1.25 0c4.15,8.3 11.62,20.65 22.42,37.05l183.99 280.52 101.18 0zm-1294.92 -81.57l-224.48 0 223.86 -308.54 0 -56.36 -342.47 0 0 81.88 212.33 0 -228.83 306.67 0 57.91 359.6 0 0 -81.57zm358.22 0l-167.19 0 0 -102.13 146.01 0 0 -81.56 -146.01 0 0 -99.32 156.91 0 0 -81.88 -257.47 0 0 446.47 267.75 0 0 -81.57zm393.65 -50.45c-4.35,-6.84 -9.19,-13.84 -14.48,-21.01 -5.3,-7.16 -10.85,-13.86 -16.65,-20.08 -5.82,-6.23 -11.84,-11.68 -18.07,-16.35 -6.23,-4.67 -12.66,-8.03 -19.3,-10.11l0 -1.24c15.15,-4.36 28.9,-10.38 41.25,-18.07 12.35,-7.67 22.89,-16.8 31.6,-27.4 8.72,-10.59 15.47,-22.47 20.24,-35.65 4.77,-13.18 7.15,-27.56 7.15,-43.11 0,-80.95 -54.17,-121.43 -162.52,-121.43l-159.41 0 0 446.47 100.56 0 0 -170.93 27.09 0c6.23,0 11.99,1.29 17.27,3.89 5.3,2.6 10.37,6.33 15.26,11.2 4.88,4.88 9.7,10.74 14.48,17.59 4.77,6.85 9.75,14.64 14.95,23.35l69.44 114.89 115.5 0 -84.37 -132.02zm-144.15 -239.1c46.7,0 70.05,19.51 70.05,58.53 0,18.68 -6.64,34.36 -19.92,47.02 -13.08,12.45 -30.41,18.68 -52,18.68l-43.59 0 0 -124.23 45.46 0z"/>
   <path class="fil0" d="M1108.98 221.67l191.48 -214.21 -65.07 0 -166.88 194.6c-4.99,5.61 -8.93,10.69 -11.83,15.25l-1.24 0 0 -209.84 -52.31 0 0 446.47 52.31 0 0 -219.8 1.24 0c1.44,2.7 5.4,7.88 11.83,15.56l172.48 204.25 72.86 0 -204.86 -232.26zm2304.54 232.26l0 -446.47 -51.99 0 0 314.46c0,30.93 1.03,52.82 3.11,65.69l-1.24 0c-2.71,-5.4 -8.72,-15.36 -18.06,-29.89l-223.55 -350.26 -67.87 0 0 446.47 52.3 0 0 -322.55c0,-31.34 -0.83,-51.78 -2.49,-61.33l1.88 0c3.72,9.76 8.51,19.1 14.31,28.02l229.76 355.87 63.83 0zm-651.44 -453.93l-3.01 0c-66.09,0.33 -118.4,21.71 -156.91,64.13 -38.81,42.76 -58.22,100.05 -58.22,171.86 0,66.84 19.04,121.11 57.13,162.83 38.09,41.72 88.79,62.58 152.09,62.58 64.76,0 116.44,-21.18 155.05,-63.52 38.6,-42.34 57.9,-99.94 57.9,-172.8 0,-67.04 -18.83,-121.32 -56.51,-162.83 -37.38,-41.18 -86.56,-61.94 -147.53,-62.26zm-1207.89 7.46l-54.17 0 -171.23 446.47 58.21 0 44.52 -125.16 189.3 0 47.33 125.16 57.9 0 -171.85 -446.47zm-105.23 274.29l69.43 -190.22c2.69,-7.27 5.08,-17.22 7.16,-29.89l1.24 0c2.28,13.7 4.56,23.66 6.85,29.89l70.05 190.22 -154.73 0zm702.68 -274.29l-52.3 0 0 314.46c0,30.93 1.03,52.82 3.12,65.69l-1.25 0c-2.7,-5.4 -8.72,-15.36 -18.06,-29.89l-223.53 -350.26 -67.88 0 0 446.47 52.3 0 0 -322.55c0,-31.34 -0.82,-51.78 -2.49,-61.33l1.87 0c3.74,9.76 8.52,19.1 14.32,28.02l229.77 355.87 64.13 0 0 -446.47zm375.43 0l-309.77 0 0 47.33 128.58 0 0 399.14 52.31 0 0 -399.14 128.88 0 0 -47.33zm343.15 88.11c27.4,32.18 41.1,77.73 41.1,136.67 0,57.5 -14.12,102.23 -42.34,134.19 -28.23,31.97 -66.84,47.95 -115.82,47.95 -45.87,0 -83.08,-16.76 -111.62,-50.28 -28.54,-33.52 -42.81,-77.78 -42.81,-132.79 0,-55 14.65,-99.42 43.91,-133.25 29.27,-33.83 67.35,-50.75 114.27,-50.75 48.14,0 85.93,16.09 113.32,48.26z"/>
   <polygon class="fil1" points="-0,1010.92 501.57,1010.92 501.57,7.79 -0,7.79 "/>
  </g>
 </g>
</svg>
